# xmcd
#
# Track frame offsets:
#	150
#	17469
#	35639
#	50502
#	63975
#	72402
#	89228
#	107073
#
# Disc length: 1601 seconds
#
# Revision: 0
# Processed by: cddbd v1.4PL0 Copyright (c) Steve Scherf et al.
# Submitted via: EasyCDDAExtractor 4.5.0.2
#
DISCID=6e063f08
DTITLE=Five Foot Tuesday
DYEAR=2002
DGENRE=Bluegrass
TTITLE0=Must Be How It Feels
TTITLE1=When It Was Now
TTITLE2=Carson City
TTITLE3=Southside Lady
TTITLE4=Rodeo
TTITLE5=Minutes Drag
TTITLE6=Thin Line
TTITLE7=Heart
EXTD=
EXTT0=
EXTT1=
EXTT2=
EXTT3=
EXTT4=
EXTT5=
EXTT6=
EXTT7=
PLAYORDER=
